<?xml version="1.0" encoding="UTF-8" standalone="no"?>
<svg
   xmlns:dc="http://purl.org/dc/elements/1.1/"
   xmlns:cc="http://creativecommons.org/ns#"
   xmlns:rdf="http://www.w3.org/1999/02/22-rdf-syntax-ns#"
   xmlns:svg="http://www.w3.org/2000/svg"
   xmlns="http://www.w3.org/2000/svg"
   xmlns:sodipodi="http://sodipodi.sourceforge.net/DTD/sodipodi-0.dtd"
   xmlns:inkscape="http://www.inkscape.org/namespaces/inkscape"
   inkscape:version="1.0 (4035a4fb49, 2020-05-01)"
   sodipodi:docname="pentominosscale12cm.svg"
   id="svg20"
   version="1.1"
   viewBox="0 0 1000 1000">
  <metadata
     id="metadata26">
    <rdf:RDF>
      <cc:Work
         rdf:about="">
        <dc:format>image/svg+xml</dc:format>
        <dc:type
           rdf:resource="http://purl.org/dc/dcmitype/StillImage" />
        <dc:title></dc:title>
      </cc:Work>
    </rdf:RDF>
  </metadata>
  <defs
     id="defs24" />
  <sodipodi:namedview
     inkscape:current-layer="svg20"
     inkscape:window-maximized="1"
     inkscape:window-y="-8"
     inkscape:window-x="-8"
     inkscape:cy="407.11765"
     inkscape:cx="500"
     inkscape:zoom="0.85"
     showgrid="false"
     id="namedview22"
     inkscape:window-height="1017"
     inkscape:window-width="1920"
     inkscape:pageshadow="2"
     inkscape:pageopacity="0"
     guidetolerance="10"
     gridtolerance="10"
     objecttolerance="10"
     borderopacity="1"
     bordercolor="#666666"
     pagecolor="#ffffff" />
  <polygon
     transform="matrix(0.56622136,0,0,0.56622136,151.82253,151.82253)"
     id="polygon2"
     stroke="#ff0000"
     fill="none"
     points="600,200 700,200 700,600 300,600 300,700 0,700 0,0 600,0 " />
  <polygon
     transform="matrix(0.56622136,0,0,0.56622136,151.82253,151.82253)"
     id="polygon4"
     stroke-linejoin="round"
     stroke="#ff0000"
     fill="none"
     points="650,150 750,150 750,750 -50,750 -50,-50 650,-50 " />
  <path
     style="stroke-width:0.566222"
     id="path6"
     fill="none"
     stroke="#ff0000"
     d="m 151.82253,321.68894 h 56.62214 V 208.44467 h 113.24427 v -56.62214" />
  <path
     style="stroke-width:0.566222"
     id="path8"
     fill="none"
     stroke="#ff0000"
     d="M 208.44467,321.68894 H 265.0668 V 265.0668 H 378.31106 V 151.82253" />
  <path
     style="stroke-width:0.566222"
     id="path10"
     fill="none"
     stroke="#ff0000"
     d="M 378.31106,151.82253 V 321.68894 H 491.55534 V 265.0668 H 434.9332 v -56.62213 h 56.62214" />
  <path
     style="stroke-width:0.566222"
     id="path12"
     fill="none"
     stroke="#ff0000"
     d="m 151.82253,378.31106 h 169.86641 v -56.62212 h 56.62212 V 265.0668" />
  <path
     style="stroke-width:0.566222"
     id="path14"
     fill="none"
     stroke="#ff0000"
     d="M 321.68894,378.31106 H 548.17747" />
  <path
     style="stroke-width:0.566222"
     id="path16"
     fill="none"
     stroke="#ff0000"
     d="M 378.31106,378.31106 V 491.55534" />
  <path
     style="stroke-width:0.566222"
     id="path18"
     fill="none"
     stroke="#ff0000"
     d="M 151.82253,434.9332 H 265.0668 v 56.62214 h 56.62214 V 434.9332 h 56.62212" />
</svg>
