<svg viewBox="0 0 1000 1000" xmlns="http://www.w3.org/2000/svg">
<polygon  points="0,0 600,0 600,200 700,200 700,600 300,600 300,700 0,700" fill="none" stroke="red" transform=/>
<polygon  points="-50,-50 650,-50 650,150 750,150 750,750   -50,750" fill="none" stroke="red" stroke-linejoin="round"  transform=/>

<path d="M0 300 h 100 v -200 h 200  v -100" stroke="red" fill="none"/>
<path d="M100 300 h 100 v -100 h 200  v -200" stroke="red" fill="none"/>
<path d="M400 0 v 300 h 200 v -100  h -100  v -100  h 100" stroke="red" fill="none"/>
<path d="M0 400 h 300 v -100 h 100  v -100  " stroke="red" fill="none"/>
<path d="M300 400 h 400" stroke="red" fill="none"/>
<path d="M400 400 v 200" stroke="red" fill="none"/>
<path d="M000 500 h 200 v 100  h 100 v -100 h 100" stroke="red" fill="none"/>
</svg>
